# Blender v2.78 (sub 0) OBJ File: ''
# www.blender.org
mtllib cell.mtl
o Circle
v 0.000000 0.000000 0.000000
v 0.000000 0.000000 -1.000000
v -0.866025 0.000000 -0.500000
v -0.866025 0.000000 0.500000
v 0.000000 0.000000 1.000000
v 0.866025 0.000000 0.500000
v 0.866025 0.000000 -0.500000
vt 0.5000 0.5000
vt 1.0000 0.7500
vt 0.5000 1.0000
vt 0.0000 0.7500
vt 0.0000 0.2500
vt 0.5000 0.0000
vt 1.0000 0.2500
vn 0.0000 1.0000 0.0000
usemtl None
s off
f 1/1/1 2/2/1 3/3/1
f 1/1/1 3/3/1 4/4/1
f 1/1/1 4/4/1 5/5/1
f 1/1/1 5/5/1 6/6/1
f 1/1/1 6/6/1 7/7/1
f 1/1/1 7/7/1 2/2/1
