# Blender v2.78 (sub 0) OBJ File: ''
# www.blender.org
mtllib cell_highlight.mtl
o Circle
v 0.000000 0.205821 1.000000
v 0.000000 0.000000 1.088901
v 0.943016 0.000000 0.544450
v 0.943016 0.000000 -0.544450
v -0.000000 0.000000 -1.088901
v -0.943016 0.000000 -0.544450
v -0.943016 0.000000 0.544450
v 0.705188 -0.258708 0.407140
v -0.000000 -0.258708 0.814281
v 0.705188 -0.258708 -0.407140
v -0.000000 -0.258708 -0.814281
v -0.705188 -0.258708 -0.407140
v -0.705188 -0.258708 0.407140
v 0.866025 0.205821 0.500000
v 0.866025 0.205821 -0.500000
v -0.000000 0.205821 -1.000000
v -0.866025 0.205821 -0.500000
v -0.866025 0.205821 0.500000
v 0.799654 0.205821 0.461680
v 0.000000 0.205821 0.923361
v 0.799654 0.205821 -0.461680
v -0.000000 0.205821 -0.923361
v -0.799654 0.205821 -0.461680
v -0.799654 0.205821 0.461680
vt 0.5005 0.4713
vt 0.5005 0.1736
vt 0.5205 0.1612
vt 0.5205 0.4837
vt 0.2602 0.0247
vt 0.2602 0.0000
vt 0.0199 0.1736
vt 0.0000 0.1612
vt 0.0199 0.4713
vt 0.0000 0.4837
vt 0.2602 0.6202
vt 0.2602 0.6449
vt 0.2998 0.8580
vt 0.1999 0.9154
vt 0.1999 0.6449
vt 0.2998 0.6557
vt 0.7681 0.6046
vt 0.6625 0.6489
vt 0.6625 0.2977
vt 0.7681 0.3420
vt 0.0999 0.8580
vt 0.0000 0.9154
vt 0.0000 0.6449
vt 0.0999 0.6557
vt 0.7681 0.3420
vt 0.8737 0.2977
vt 0.8737 0.6489
vt 0.7681 0.6046
vt 0.1999 0.9047
vt 0.0999 0.9154
vt 0.0999 0.6449
vt 0.1999 0.7024
vt 0.6261 0.9023
vt 0.5205 0.9466
vt 0.5205 0.5955
vt 0.6261 0.6398
vt 0.5205 0.5779
vt 0.5205 0.3153
vt 0.6625 0.2977
vt 0.6625 0.5955
vt 0.8697 0.1945
vt 0.8697 0.0000
vt 0.9348 0.0175
vt 0.9348 0.1962
vt 0.6625 0.9290
vt 0.6625 0.6665
vt 0.7461 0.6489
vt 0.7461 0.9466
vt 0.8737 0.6489
vt 0.8737 1.0000
vt 0.8079 0.9857
vt 0.8079 0.6632
vt 0.3833 0.9251
vt 0.3833 0.6625
vt 0.4669 0.6449
vt 0.4669 0.9427
vt 0.9395 0.6489
vt 0.9395 1.0000
vt 0.8737 0.9857
vt 0.8737 0.6632
vt 0.9348 0.1945
vt 0.9348 0.0000
vt 1.0000 0.0175
vt 1.0000 0.1962
vt 0.6625 0.0176
vt 0.6625 0.2802
vt 0.5205 0.2977
vt 0.5205 0.0000
vt 0.8697 0.0000
vt 0.8697 0.1945
vt 0.8045 0.1962
vt 0.8045 0.0175
vt 0.2998 0.9251
vt 0.2998 0.6625
vt 0.3833 0.6449
vt 0.3833 0.9427
vt 0.8045 0.0176
vt 0.8045 0.2802
vt 0.6625 0.2977
vt 0.6625 0.0000
vt 0.9395 0.2977
vt 0.9395 0.6489
vt 0.8737 0.6345
vt 0.8737 0.3121
vn 0.0000 1.0000 0.0000
vn 0.3681 -0.6768 0.6376
vn 0.7362 -0.6768 -0.0000
vn 0.3681 -0.6768 -0.6376
vn -0.3681 -0.6768 -0.6376
vn -0.7362 -0.6768 0.0000
vn -0.3681 -0.6768 0.6376
vn 0.4900 0.1993 -0.8487
vn -0.4683 0.3504 -0.8111
vn -0.4900 0.1993 0.8487
vn 0.4683 0.3504 0.8111
vn 0.9799 0.1993 0.0000
vn -0.9366 0.3504 0.0000
vn 0.9366 0.3504 -0.0000
vn -0.9799 0.1993 0.0000
vn -0.4683 0.3504 0.8111
vn -0.4900 0.1993 -0.8487
vn 0.4900 0.1993 0.8487
vn 0.4683 0.3504 -0.8111
usemtl None
s off
f 20/1/1 24/2/1 18/3/1 1/4/1
f 24/2/1 23/5/1 17/6/1 18/3/1
f 23/5/1 22/7/1 16/8/1 17/6/1
f 22/7/1 21/9/1 15/10/1 16/8/1
f 21/9/1 19/11/1 14/12/1 15/10/1
f 19/11/1 20/1/1 1/4/1 14/12/1
f 8/13/2 3/14/2 2/15/2 9/16/2
f 10/17/3 4/18/3 3/19/3 8/20/3
f 11/21/4 5/22/4 4/23/4 10/24/4
f 12/25/5 6/26/5 5/27/5 11/28/5
f 13/29/6 7/30/6 6/31/6 12/32/6
f 9/33/7 2/34/7 7/35/7 13/36/7
f 9/37/8 13/38/8 24/39/8 20/40/8
f 5/41/9 6/42/9 17/43/9 16/44/9
f 11/45/10 10/46/10 21/47/10 22/48/10
f 2/49/11 3/50/11 14/51/11 1/52/11
f 13/53/12 12/54/12 23/55/12 24/56/12
f 6/57/13 7/58/13 18/59/13 17/60/13
f 3/61/14 4/62/14 15/63/14 14/64/14
f 10/65/15 8/66/15 19/67/15 21/68/15
f 7/69/16 2/70/16 1/71/16 18/72/16
f 8/73/17 9/74/17 20/75/17 19/76/17
f 12/77/18 11/78/18 22/79/18 23/80/18
f 4/81/19 5/82/19 16/83/19 15/84/19
