# Blender v2.78 (sub 0) OBJ File: 'tree.blend'
# www.blender.org
mtllib tree3.mtl
o Circle
v 0.000000 -0.017339 -0.105729
v -0.091564 -0.017339 0.052865
v 0.091564 -0.017339 0.052865
v 0.063845 0.310596 -0.123577
v -0.034142 0.349025 0.113103
v 0.117401 0.347462 -0.023798
v 0.054760 0.265716 0.005248
v 0.014309 0.254874 -0.064301
v -0.038861 0.264161 0.022919
v 0.070502 0.349486 0.113355
v -0.115795 0.350859 0.003008
v -0.077020 0.316077 -0.117251
v 0.139380 0.500695 -0.166664
v 0.012358 0.500855 0.226010
v 0.180141 0.497900 -0.108085
v 0.075983 0.498776 0.219602
v -0.193950 0.510461 -0.051244
v -0.168190 0.510682 -0.110470
v 0.074617 0.638287 -0.089075
v 0.005776 0.632735 0.156312
v 0.092993 0.634793 -0.057753
v 0.033125 0.630485 0.154328
v -0.095342 0.638358 -0.061969
v -0.084615 0.644049 -0.089688
v -0.011509 0.694049 0.029310
v 0.038111 0.691703 0.027565
v 0.003258 0.694020 -0.034271
v 0.115675 0.323805 0.051532
v 0.130020 0.379164 0.126414
v -0.105896 0.320032 0.105327
v -0.162910 0.393424 0.065617
v -0.063453 0.341780 -0.175744
v 0.010698 0.256680 -0.097144
v 0.170548 0.375089 0.005992
v -0.098033 0.368083 0.172317
v 0.059791 0.311904 -0.155890
v 0.247707 0.498365 -0.062881
v 0.075392 0.506270 -0.219145
v -0.121766 0.509480 0.245376
v 0.157096 0.503491 0.224665
v -0.130609 0.543334 -0.205722
v -0.218745 0.532476 0.043899
v 0.193029 0.627952 -0.013715
v 0.041568 0.616771 -0.147547
v -0.081152 0.602213 0.199655
v 0.140163 0.625920 0.172190
v -0.073115 0.624470 -0.128801
v -0.152088 0.623633 0.017686
v -0.192640 0.391069 0.151020
v -0.009161 0.338986 -0.189252
v 0.244939 0.418856 0.109854
v -0.204008 0.534033 0.184241
v 0.268397 0.552388 0.122671
v -0.012591 0.533333 -0.282427
v -0.123723 0.634799 0.107563
v 0.154034 0.682409 0.063217
v -0.030309 0.610339 -0.136516
v 0.006677 0.129933 -0.055426
v 0.053813 0.139501 0.028389
v -0.044352 0.138815 0.036177
vt 0.5520 0.5235
vt 0.4265 0.5691
vt 0.4207 0.4688
vt 0.4854 0.4285
vt 0.5035 0.1284
vt 0.6007 0.3209
vt 0.5118 0.3238
vt 0.4687 0.1979
vt 0.3027 0.1359
vt 0.4274 0.0086
vt 0.4043 0.1268
vt 0.3389 0.2065
vt 0.2739 0.5255
vt 0.3390 0.4295
vt 0.4718 0.7504
vt 0.3566 0.9048
vt 0.2906 0.8226
vt 0.3650 0.7570
vt 0.2632 0.5556
vt 0.4102 0.6174
vt 0.3056 0.6973
vt 0.2243 0.6615
vt 0.6171 0.9015
vt 0.5083 0.7442
vt 0.5617 0.7397
vt 0.6565 0.7972
vt 0.1562 0.9792
vt 0.1846 0.8853
vt 0.2227 0.3379
vt 0.3121 0.3364
vt 0.8542 0.8929
vt 0.8168 0.8362
vt 0.9764 0.8388
vt 0.9411 0.8251
vt 0.0793 0.6191
vt 0.1691 0.7204
vt 0.9291 0.7432
vt 0.8954 0.7495
vt 0.4740 0.6221
vt 0.5784 0.5621
vt 0.4017 0.2829
vt 0.8366 0.7884
vt 0.1654 0.8198
vt 0.0873 0.8784
vt 0.0969 0.8013
vt 0.4038 0.3589
vt 0.7471 0.6624
vt 0.7058 0.7276
vt 0.2207 0.7556
vt 0.6241 0.6320
vt 0.5846 0.6977
vt 0.7849 0.5785
vt 0.0065 0.9912
vt 0.0065 0.8336
vt 0.8207 0.1991
vt 0.8247 0.2625
vt 0.7570 0.2780
vt 0.7530 0.2127
vt 0.9488 0.2072
vt 0.9492 0.2589
vt 0.8979 0.2572
vt 0.8970 0.1974
vt 0.8940 0.2567
vt 0.8283 0.2644
vt 0.9012 0.1229
vt 0.8115 0.1213
vt 0.9581 0.1368
vt 0.7318 0.1409
vt 0.8186 0.3842
vt 0.7769 0.3830
vt 0.9536 0.3603
vt 0.9184 0.3637
vt 0.8814 0.3600
vt 0.8483 0.3710
vt 0.8034 0.4825
vt 0.7821 0.4819
vt 0.9394 0.4438
vt 0.9244 0.4461
vt 0.8822 0.4472
vt 0.8620 0.4521
vt 0.7960 0.0275
vt 0.7045 0.0642
vt 0.9831 0.0618
vt 0.8950 0.0275
vn 0.4828 0.7505 -0.4513
vn 0.1679 0.9835 0.0666
vn 0.3977 0.9136 0.0846
vn 0.5994 0.6586 -0.4550
vn 0.6962 -0.6393 -0.3265
vn 0.7445 -0.0019 -0.6676
vn 0.8283 -0.0293 -0.5594
vn 0.6832 -0.6900 -0.2391
vn 0.1334 -0.7109 0.6905
vn 0.6979 -0.6504 0.2998
vn 0.5167 -0.8272 0.2207
vn 0.3449 -0.7092 0.6149
vn 0.0165 0.7197 0.6941
vn 0.2050 0.6565 0.7259
vn -0.6336 0.7486 -0.1951
vn -0.9479 0.0149 -0.3181
vn -0.9746 0.1709 -0.1444
vn -0.6810 0.7190 -0.1390
vn 0.0382 0.7547 0.6549
vn -0.1802 0.9707 0.1586
vn -0.4799 0.8325 0.2768
vn -0.1137 0.6734 0.7305
vn -0.9405 0.0525 -0.3356
vn -0.4894 0.7972 -0.3535
vn -0.3688 0.7977 -0.4772
vn -0.7008 0.2868 -0.6531
vn -0.7830 -0.5986 -0.1691
vn -0.8428 -0.5318 -0.0829
vn 0.0080 -0.1159 0.9932
vn 0.3064 -0.0519 0.9504
vn -0.6999 -0.6592 -0.2747
vn -0.5629 -0.5398 -0.6259
vn 0.1117 -0.8428 -0.5265
vn 0.0638 -0.9306 -0.3604
vn 0.1638 -0.0745 0.9837
vn -0.1895 0.0380 0.9811
vn 0.7409 -0.5995 -0.3027
vn 0.4733 -0.5863 -0.6574
vn 0.0002 0.9626 -0.2710
vn 0.4495 0.7604 -0.4686
vn 0.7764 -0.5552 0.2981
vn -0.0158 -0.5516 -0.8339
vn -0.7815 -0.5096 0.3600
vn -0.3523 -0.8852 0.3038
vn -0.1339 -0.6863 0.7148
vn 0.9242 0.1612 0.3462
vn 0.5788 0.1594 -0.7997
vn -0.0011 0.2507 -0.9680
vn -0.8323 0.2256 0.5063
vn 0.3179 0.7392 -0.5936
vn 0.0164 0.8167 -0.5768
vn 0.8124 0.0926 -0.5756
vn -0.5604 -0.7262 0.3982
vn 0.1522 -0.6893 0.7082
vn 0.6964 -0.6915 -0.1918
vn 0.0642 -0.7635 0.6426
vn -0.6274 -0.7702 -0.1145
vn -0.8640 0.0008 -0.5035
vn 0.1287 0.1388 0.9819
vn 0.8699 -0.0915 -0.4846
vn 0.8007 -0.4660 -0.3766
vn 0.0238 -0.5910 0.8063
vn -0.8667 -0.4446 -0.2260
vn 0.6979 0.5812 -0.4184
vn 0.1032 0.4686 0.8774
vn -0.7799 0.5550 -0.2895
vn 0.8584 0.1299 -0.4963
vn 0.0271 0.1295 0.9912
vn -0.8472 0.2048 -0.4901
usemtl Leaves
s 1
f 21/1/1 26/2/2 56/3/3 43/4/4
f 6/5/5 15/6/6 37/7/7 34/8/8
f 10/9/9 7/10/10 28/11/11 29/12/12
f 26/2/2 22/13/13 46/14/14 56/3/3
f 23/15/15 17/16/16 42/17/17 48/18/18
f 20/19/19 25/20/20 55/21/21 45/22/22
f 18/23/23 24/24/24 47/25/25 41/26/26
f 17/16/16 11/27/27 31/28/28 42/17/17
f 25/20/20 23/15/15 48/18/18 55/21/21
f 22/13/13 16/29/29 40/30/30 46/14/14
f 12/31/31 18/23/23 41/26/26 32/32/32
f 8/33/33 12/31/31 32/32/32 33/34/34
f 14/35/35 20/19/19 45/22/22 39/36/36
f 4/37/37 8/33/33 33/34/34 36/38/38
f 16/29/29 10/9/9 29/12/12 40/30/30
f 24/24/24 23/15/15 25/20/20 27/39/39
f 19/40/40 27/39/39 26/2/2 21/1/1
f 22/13/13 26/2/2 25/20/20 20/19/19
f 27/39/39 25/20/20 26/2/2
f 51/41/41 29/12/12 28/11/11 34/8/8
f 32/32/32 50/42/42 36/38/38 33/34/34
f 49/43/43 31/28/28 30/44/44 35/45/45
f 43/4/4 56/3/3 53/46/46 37/7/7
f 46/14/14 40/30/30 53/46/46 56/3/3
f 40/30/30 29/12/12 51/41/41 53/46/46
f 37/7/7 53/46/46 51/41/41 34/8/8
f 38/47/47 36/38/38 50/42/42 54/48/48
f 41/26/26 54/48/48 50/42/42 32/32/32
f 42/17/17 31/28/28 49/43/43 52/49/49
f 39/36/36 52/49/49 49/43/43 35/45/45
f 44/50/50 38/47/47 54/48/48 57/51/51
f 47/25/25 57/51/51 54/48/48 41/26/26
f 48/18/18 42/17/17 52/49/49 55/21/21
f 45/22/22 55/21/21 52/49/49 39/36/36
f 13/52/52 4/37/37 36/38/38 38/47/47
f 24/24/24 27/39/39 57/51/51 47/25/25
f 7/10/10 6/5/5 34/8/8 28/11/11
f 15/6/6 21/1/1 43/4/4 37/7/7
f 11/27/27 9/53/53 30/44/44 31/28/28
f 5/54/54 14/35/35 39/36/36 35/45/45
f 27/39/39 19/40/40 44/50/50 57/51/51
f 9/53/53 5/54/54 35/45/45 30/44/44
f 19/40/40 13/52/52 38/47/47 44/50/50
usemtl Trunk
s off
f 8/55/55 4/56/55 6/57/55 7/58/55
f 7/59/56 10/60/56 5/61/56 9/62/56
f 9/62/57 11/63/57 12/64/57 8/55/57
f 60/65/58 9/62/58 8/55/58 58/66/58
f 59/67/59 7/59/59 9/62/59 60/65/59
f 58/66/60 8/55/60 7/58/60 59/68/60
f 4/56/61 13/69/61 15/70/61 6/57/61
f 10/60/62 16/71/62 14/72/62 5/61/62
f 11/63/63 17/73/63 18/74/63 12/64/63
f 13/69/64 19/75/64 21/76/64 15/70/64
f 16/71/65 22/77/65 20/78/65 14/72/65
f 17/73/66 23/79/66 24/80/66 18/74/66
f 1/81/67 58/66/67 59/68/67 3/82/67
f 3/83/68 59/67/68 60/65/68 2/84/68
f 2/84/69 60/65/69 58/66/69 1/81/69
